<?xml version="1.0" encoding="utf-8"?>
<!-- Svg Vector Icons : http://www.onlinewebfonts.com/icon -->
<!DOCTYPE svg PUBLIC "-//W3C//DTD SVG 1.1//EN" "http://www.w3.org/Graphics/SVG/1.1/DTD/svg11.dtd">
<svg version="1.1" xmlns="http://www.w3.org/2000/svg" xmlns:xlink="http://www.w3.org/1999/xlink" x="0px" y="0px" viewBox="0 0 1000 1000" enable-background="new 0 0 1000 1000" xml:space="preserve">
<metadata> Svg Vector Icons : http://www.onlinewebfonts.com/icon </metadata>
<g><path d="M502.6,114.9c120.5,0,204.6,91.7,204.6,222.9c0,74.5-40.6,151.3-124.1,234.8c-7.6,7.6-12.7,17.3-14.7,27.8c-4.1,21.7-0.2,39.9,11.5,54c8.1,9.8,20.1,16.6,32.6,18.9c153.5,33.5,324.3,111.2,324.3,165.5v8c0,21.2-17.2,38.5-38.5,38.5H101.6c-21.2,0-38.5-17.2-38.5-38.5v-8c0-50.6,151.3-127.8,324.3-165.5c12.5-2.3,24.4-9,32.6-18.8c11.7-14,15.6-32.1,11.6-53.8c-1.9-10.6-7.1-20.4-14.7-28.1c-83.5-83.5-124.1-160.3-124.1-234.8c0-131.2,84.1-222.9,204.6-222.9L502.6,114.9 M502.6,61.7h-5.3c-142.4,0-257.7,106.7-257.7,276.1c0,118.7,82.4,215.1,139.7,272.4c1.8,9.9-0.4,10.7-1.1,10.7c-0.1,0-0.2,0-0.2,0c-91.5,19.8-368,98.9-368,217.9v8c0,50.6,41,91.6,91.6,91.6h796.8c50.6,0,91.6-41,91.6-91.6v-8c0-117-276.6-198.1-368-217.9c0,0-0.1,0-0.2,0c-0.7,0-2.9-0.8-1.1-10.7c57.2-57.2,139.7-153.7,139.7-272.4C760.4,168.5,645,61.7,502.6,61.7L502.6,61.7z"/></g>
</svg>